<?xml version="1.0" encoding="iso-8859-1"?>
<!-- Generator: Adobe Illustrator 21.1.0, SVG Export Plug-In . SVG Version: 6.00 Build 0)  -->
<svg version="1.1" id="Layer_1" xmlns="http://www.w3.org/2000/svg" xmlns:xlink="http://www.w3.org/1999/xlink" x="0px" y="0px"
	 viewBox="0 0 100.587 100.353" style="enable-background:new 0 0 100.587 100.353;" xml:space="preserve">
<g>
	<path d="M50.807,26.222c-13.362,0-24.233,10.875-24.233,24.243c0,7.696,3.642,14.88,9.787,19.447v16.375c0,0.828,0.671,1.5,1.5,1.5
		h2.41c0.732,5.167,5.171,9.157,10.536,9.157c5.367,0,9.809-3.99,10.542-9.157h2.124c0.828,0,1.5-0.672,1.5-1.5V70.122
		c6.316-4.562,10.074-11.854,10.074-19.657C75.047,37.097,64.173,26.222,50.807,26.222z M50.807,93.945
		c-3.707,0-6.806-2.651-7.504-6.157h15.015C57.618,91.293,54.517,93.945,50.807,93.945z M61.973,84.787H39.361V70.639h22.612V84.787
		z M55.137,51.785v15.854h-8.947V51.785H55.137z M63.289,67.639h-5.152V51.785h4.735c0.828,0,1.5-0.672,1.5-1.5
		c0-0.829-0.672-1.5-1.5-1.5H38.461c-0.829,0-1.5,0.671-1.5,1.5c0,0.828,0.671,1.5,1.5,1.5h4.728v15.854h-4.856
		c-5.495-3.995-8.76-10.355-8.76-17.174c0-11.713,9.525-21.243,21.233-21.243c11.711,0,21.24,9.529,21.24,21.243
		C72.047,57.273,68.782,63.637,63.289,67.639z"/>
	<path d="M50.663,21.182c0.828,0,1.5-0.671,1.5-1.5V4.555c0-0.829-0.672-1.5-1.5-1.5c-0.829,0-1.5,0.671-1.5,1.5v15.127
		C49.163,20.511,49.834,21.182,50.663,21.182z"/>
	<path d="M17.628,48.785H2.501c-0.829,0-1.5,0.671-1.5,1.5c0,0.828,0.671,1.5,1.5,1.5h15.127c0.829,0,1.5-0.672,1.5-1.5
		C19.128,49.457,18.457,48.785,17.628,48.785z"/>
	<path d="M97.5,48.785H82.38c-0.828,0-1.5,0.671-1.5,1.5c0,0.828,0.672,1.5,1.5,1.5H97.5c0.828,0,1.5-0.672,1.5-1.5
		C99,49.457,98.328,48.785,97.5,48.785z"/>
	<path d="M26.787,28.851c0.284,0.249,0.636,0.37,0.986,0.37c0.418,0,0.834-0.174,1.13-0.514c0.545-0.624,0.48-1.571-0.144-2.116
		l-11.393-9.946c-0.623-0.545-1.572-0.48-2.116,0.144c-0.545,0.624-0.48,1.571,0.144,2.116L26.787,28.851z"/>
	<path d="M70.981,29.221c0.35,0,0.701-0.122,0.985-0.37l11.399-9.946c0.624-0.545,0.688-1.492,0.144-2.117
		c-0.543-0.624-1.492-0.69-2.116-0.144l-11.399,9.946c-0.624,0.545-0.688,1.492-0.144,2.117
		C70.146,29.048,70.562,29.221,70.981,29.221z"/>
</g>
</svg>
