<?xml version="1.0" encoding="iso-8859-1"?>
<!-- Generator: Adobe Illustrator 21.0.0, SVG Export Plug-In . SVG Version: 6.00 Build 0)  -->
<svg version="1.1" id="Layer_1" xmlns="http://www.w3.org/2000/svg" xmlns:xlink="http://www.w3.org/1999/xlink" x="0px" y="0px"
	 viewBox="0 0 100.353 100.353" style="enable-background:new 0 0 100.353 100.353;" xml:space="preserve">
<g>
	<path style="fill:#231F20;" d="M87.208,24.943c1.485-7.46,2.145-17.094-3.15-20.621c-5.294-3.531-13.932,0.786-20.246,5.029
		c-6.763,4.545-13.882,11.161-16.929,15.733l-2.338,3.509c-3.466-0.098-15.134-0.286-19.361,1.438
		c-4.613,1.886-13.018,11.827-13.422,15.877c-0.146,1.454,0.58,2.169,1.023,2.463c0.865,0.578,3.286,0.787,6.339,0.787
		c3.672,0,8.248-0.303,12.14-0.631l-1.023,1.535c-0.005,0.007-0.011,0.013-0.016,0.02s-0.007,0.016-0.012,0.023l-6.438,9.664
		c-4.319,6.481-4.305,14.946-0.077,21.405l-2.769,4.155c-1.094,1.642-1.455,3.625-1.016,5.586c0.434,1.936,1.599,3.618,3.279,4.736
		c1.333,0.889,2.838,1.315,4.313,1.315c2.388,0,4.7-1.117,6.087-3.197l2.763-4.147c1.182,0.222,2.37,0.333,3.55,0.333
		c6.394,0,12.541-3.177,16.192-8.653l7.999-12.005c2.19,6.809,5.352,15.727,7.257,16.994c0.262,0.174,0.695,0.383,1.271,0.383
		c0.402,0,0.873-0.103,1.403-0.389c3.581-1.936,9.517-13.521,9.479-18.502c-0.032-4.565-4.705-15.265-6.129-18.42l1.825-2.739
		C82.25,42.056,85.617,32.938,87.208,24.943z M49.379,26.748c2.449-3.675,8.768-9.975,16.106-14.907
		c7.736-5.198,13.897-7.03,16.909-5.022c3.009,2.004,3.691,8.396,1.871,17.539c-1.727,8.674-5.109,16.93-7.559,20.603L60.884,68.709
		l-18.73-12.478c-0.007-0.005-0.012-0.011-0.02-0.016c-0.007-0.005-0.015-0.007-0.023-0.012l-8.557-5.701l12.955-19.446
		c0.039-0.05,0.073-0.103,0.106-0.158L49.379,26.748z M14.766,45.972c0.475-2.549,7.551-11.527,11.552-13.163
		c2.878-1.173,11.158-1.322,16.254-1.254l-9.175,13.772C25.678,46.035,16.892,46.436,14.766,45.972z M26.271,61.434l5.621-8.437
		l7.33,4.883L25.537,78.416C22.646,73.123,22.863,66.548,26.271,61.434z M31.097,92.106c-1.326,1.987-4.126,2.46-6.241,1.049
		c-1.036-0.688-1.751-1.717-2.016-2.896c-0.258-1.152-0.05-2.312,0.585-3.266l3.321-4.983c0.022-0.032,0.045-0.063,0.064-0.096
		l14.908-22.371l7.67,5.11L31.097,92.106z M53.603,79.638c-3.413,5.118-9.404,7.851-15.403,7.217l13.685-20.539l7.337,4.888
		L53.603,79.638z M80.507,67.806C80.54,72.125,75,82.084,72.822,83.532c-1.304-1.896-4.29-10.094-6.592-17.437l9.174-13.77
		C77.431,57,80.484,64.698,80.507,67.806z"/>
	<path style="fill:#231F20;" d="M57.502,43.158c1.998,1.333,4.261,1.971,6.501,1.971c3.803,0,7.541-1.839,9.808-5.236l0.001-0.001
		c3.59-5.398,2.122-12.714-3.272-16.309c-2.615-1.742-5.754-2.36-8.83-1.743c-3.081,0.617-5.735,2.396-7.474,5.01
		c-1.743,2.614-2.363,5.75-1.746,8.83C53.106,38.759,54.887,41.415,57.502,43.158z M56.733,28.512
		c1.295-1.946,3.271-3.271,5.565-3.731c0.58-0.116,1.162-0.173,1.739-0.173c1.711,0,3.384,0.502,4.839,1.472
		c4.019,2.678,5.112,8.127,2.438,12.149c-2.684,4.022-8.134,5.11-12.148,2.434c-1.949-1.299-3.276-3.277-3.735-5.571
		C54.971,32.796,55.433,30.461,56.733,28.512z"/>
</g>
</svg>
