<svg id="Layer_1" data-name="Layer 1" xmlns="http://www.w3.org/2000/svg" viewBox="0 0 101 101"><title>log_Artboard 2 copy 12</title><path d="M94.5,63h-22L88.74,39.47a1.5,1.5,0,0,0-1.23-2.35l-5.51,0V18.5A1.5,1.5,0,0,0,80.5,17h-13A1.5,1.5,0,0,0,66,18.5V26H54.5A1.5,1.5,0,0,0,53,27.5V37H50.65l-9.65,0V18.5A1.5,1.5,0,0,0,39.5,17H33V9.5a1.5,1.5,0,0,0-3,0V17H23.5A1.5,1.5,0,0,0,22,18.5V36.95c-9,0-9.17.22-9.56.61a1.5,1.5,0,0,0-.26,1.77L24.79,63H7.5a1.5,1.5,0,0,0,0,3h87a1.5,1.5,0,0,0,0-3ZM69,20H79V37.08L69,37ZM56,29H66v8L56,37ZM25,20H38V36.94H25Zm3.08,42.79L15.94,40c1.64,0,4.12,0,7.23-.06a1.4,1.4,0,0,0,.67,0c4.2,0,9.45,0,15.3,0a1.36,1.36,0,0,0,.73,0c13.82,0,30.77.08,44.79.15L69.15,62.65A1.49,1.49,0,0,0,69,63H28.16A1.49,1.49,0,0,0,28.08,62.79Z"/><path d="M79.5,74h-57a1.5,1.5,0,0,0,0,3h57a1.5,1.5,0,0,0,0-3Z"/><path d="M67.5,86h-31a1.5,1.5,0,0,0,0,3h31a1.5,1.5,0,0,0,0-3Z"/><path d="M31.5,33A1.5,1.5,0,0,0,33,31.5v-6a1.5,1.5,0,0,0-3,0v6A1.5,1.5,0,0,0,31.5,33Z"/></svg>